<svg width="1000" height="1000" viewBox="0 0 1000 1000" fill="none" xmlns="http://www.w3.org/2000/svg">
<rect width="1000" height="1000" fill="#FFD53E"/>
<!-- Pony Tail Left -->
<path d="M205 188.5C221.8 136.9 291.667 167 318.5 188.5L283 467.5C290.2 498.7 294 552.833 295 576C300 673 235 740 251 707.5C263.8 681.5 256.333 607.333 251 573.5C251 613.9 220.333 701.333 205 740C191.833 731.5 160.4 689.1 140 587.5C121.5 440 184 253 205 188.5Z" fill="#FF8B8B" stroke="black" stroke-width="10"/>
<!-- Pony Tail Right -->
<path d="M788.5 188.491C771.7 136.891 701.833 166.991 675 188.491L710.5 467.491C703.3 498.691 699.5 552.824 698.5 575.991C693.5 672.991 758.5 739.991 742.5 707.491C729.7 681.491 737.167 607.324 742.5 573.491C742.5 613.891 773.167 701.324 788.5 739.991C801.667 731.491 833.1 689.091 853.5 587.491C872 439.991 809.5 252.991 788.5 188.491Z" fill="#FF8B8B" stroke="black" stroke-width="10"/>

<!-- Face -->
<path d="M730 381C730 426.209 704.612 467.59 662.659 497.861C620.712 528.126 562.513 547 498 547C433.487 547 375.288 528.126 333.341 497.861C291.388 467.59 266 426.209 266 381C266 335.791 291.388 294.41 333.341 264.139C375.288 233.874 433.487 215 498 215C562.513 215 620.712 233.874 662.659 264.139C704.612 294.41 730 335.791 730 381Z" fill="white" stroke="black" stroke-width="10"/>

<!-- Leg Left -->
<path d="M493 836.5C493 862.099 488.653 885.039 481.818 901.393C478.395 909.581 474.447 915.882 470.319 920.059C466.208 924.219 462.218 926 458.5 926C454.782 926 450.792 924.219 446.681 920.059C442.553 915.882 438.605 909.581 435.182 901.393C428.347 885.039 424 862.099 424 836.5C424 810.901 428.347 787.961 435.182 771.607C438.605 763.419 442.553 757.118 446.681 752.941C450.792 748.781 454.782 747 458.5 747C462.218 747 466.208 748.781 470.319 752.941C474.447 757.118 478.395 763.419 481.818 771.607C488.653 787.961 493 810.901 493 836.5Z" fill="#FFF7E1" stroke="black" stroke-width="10"/>

<!-- Leg Right -->
<path d="M586 836.5C586 862.099 581.653 885.039 574.818 901.393C571.395 909.581 567.447 915.882 563.319 920.059C559.208 924.219 555.218 926 551.5 926C547.782 926 543.792 924.219 539.681 920.059C535.553 915.882 531.605 909.581 528.182 901.393C521.347 885.039 517 862.099 517 836.5C517 810.901 521.347 787.961 528.182 771.607C531.605 763.419 535.553 757.118 539.681 752.941C543.792 748.781 547.782 747 551.5 747C555.218 747 559.208 748.781 563.319 752.941C567.447 757.118 571.395 763.419 574.818 771.607C581.653 787.961 586 810.901 586 836.5Z" fill="#FFF7E1" stroke="black" stroke-width="10"/>

<!-- Dress Main -->
<path d="M353.5 784.5C368.7 758.1 423.5 614.167 449 545.5H554.5L647 784.5C527.8 849.7 401.667 811.667 353.5 784.5Z" fill="#FF2828" stroke="black" stroke-width="10"/>

<!-- Sleeve Left -->
<path d="M385.5 671.5C373.5 637.1 418.167 580.5 442.5 553L436.75 615L468 598.5C460.4 615.7 471.167 646.667 477.5 660L412.5 692C399.5 694.5 389 676.5 385.5 671.5Z" fill="#5283FF"/>

<!-- Sleeve Right -->
<path d="M656.5 692L554.5 546L567.5 660L622 731L656.5 692Z" fill="#5283FF"/>

<!-- Sleeve line art  -->
<path d="M405.5 631.5L436.75 615M436.75 615L468 598.5C460.4 615.7 471.167 646.667 477.5 660L412.5 692C399.5 694.5 389 676.5 385.5 671.5C373.5 637.1 418.167 580.5 442.5 553L436.75 615ZM554.5 546L656.5 692L622 731L567.5 660L554.5 546Z" stroke="black" stroke-width="10"/>

<!-- Eye -->
<ellipse cx="406" cy="429" rx="38" ry="44" fill="black"/>
<ellipse cx="581" cy="429" rx="38" ry="44" fill="black"/>
<ellipse cx="418.5" cy="416" rx="12.5" ry="13" fill="white"/>
<ellipse cx="593.5" cy="416" rx="12.5" ry="13" fill="white"/>

<!-- Eye lid -->
<path d="M543.5 396.5C562.833 373.667 609.1 348.1 639.5 428.5" stroke="#070000" stroke-width="10"/>

<!-- Eye lid -->
<path d="M446 396.854C426.667 373.917 380.4 348.234 350 429" stroke="#070000" stroke-width="10"/>

<!-- Mouth -->
<path d="M522.5 484C522.5 494.436 512.562 503.5 499.5 503.5C486.438 503.5 476.5 494.436 476.5 484C476.5 473.564 486.438 464.5 499.5 464.5C512.562 464.5 522.5 473.564 522.5 484Z" fill="#FF8181" stroke="black" stroke-width="5"/>

<!-- Hair Bang Cover eye -->
<!-- <path d="M615 477.5C528.2 420.7 457.167 296.5 432.5 241.5C432.5 300.7 462.833 381.5 478 414.5C427.433 389.051 386.127 318.156 364.182 269C306.182 347.8 353 498 368.5 587C248 484 253 399.5 254.5 328C256 256.5 313.5 100.5 508 102C663.6 103.2 725.5 253.167 737 328C755.8 503.6 671.833 573.833 627.5 587C662.7 499 649.5 343 638.5 276C648.5 379.2 627 453.333 615 477.5Z" fill="#FF8B8B" stroke="black" stroke-width="10"/> -->

<!-- Hair Curly -->
<path d="M287.5 620C278 447.5 245 429.5 253 291C253 199 326 95 490.5 95C671 95 714 181.5 735.5 291C750.5 433.5 689 540.5 704 620C663.6 580.8 631.333 306.667 628.5 265L613.5 350C585.1 334.8 574 339 557.5 265V339C533.5 315.8 519.167 283.667 515 265C501.8 333 466 333.5 434 339C472.4 311.8 453.167 287.5 454.5 265C434 339 394.333 324.333 372.5 339C372.5 284 364 257 364 265C349 453 287.5 620 287.5 620Z" fill="#FF8B8B" stroke="black" stroke-width="10"/>

<!-- Knife  -->
<path d="M466 695.067L472.581 668.881L491.716 592.749L513.053 598.112L487.336 700.43L466 695.067Z" fill="black" stroke="black" stroke-width="10"/>
<path d="M561.685 498.976L530.108 440L515.361 498.675L491.716 592.749L535.359 603.718L561.685 498.976Z" fill="#D6CBCB" stroke="black" stroke-width="10"/>
<path d="M537 532.5C527.4 521.7 533 488.667 537 473.5C544.6 466.7 556.833 487.333 562 498.5L551.5 541.5L541.756 586.812C541.833 587.366 541.767 587.76 541.5 588L541.756 586.812C541.35 583.906 537 576.598 537 564C537 554.038 549 546 537 532.5Z" fill="#FF1414" stroke="black" stroke-width="5"/>

<!-- Hand left -->
<path d="M520 623.5C520 642.907 507.086 657 493 657C478.914 657 466 642.907 466 623.5C466 604.093 478.914 590 493 590C507.086 590 520 604.093 520 623.5Z" fill="#FFF7E1" stroke="black" stroke-width="10"/>

<!-- Hand Right -->
<path d="M678 729C678 745.623 666.237 758 653 758C639.763 758 628 745.623 628 729C628 712.377 639.763 700 653 700C666.237 700 678 712.377 678 729Z" fill="#FFF7E1" stroke="black" stroke-width="10"/>

<!-- Devil horn -->
<path d="M323.157 169.21L316.146 119.382L361.456 141.268L323.157 169.21Z" fill="#FF0000" stroke="black" stroke-width="10"/>
<path d="M621.098 136.698L666.859 115.772L658.8 165.441L621.098 136.698Z" fill="#FF0000" stroke="black" stroke-width="10"/>
</svg>
